<svg width="103" height="100" viewBox="0 0 103 100" fill="none" xmlns="http://www.w3.org/2000/svg">
<path d="M90.125 50V20.8333C90.125 18.6232 89.2207 16.5036 87.611 14.9408C86.0013 13.378 83.8181 12.5 81.5417 12.5H21.4583C19.1819 12.5 16.9987 13.378 15.389 14.9408C13.7793 16.5036 12.875 18.6232 12.875 20.8333V66.6667M90.125 50V79.1667C90.125 81.3768 89.2207 83.4964 87.611 85.0592C86.0013 86.622 83.8181 87.5 81.5417 87.5H68.6667M90.125 50C62.4781 50 46.7577 58.2708 38.389 67.6792M12.875 66.6667V79.1667C12.875 81.3768 13.7793 83.4964 15.389 85.0592C16.9987 86.622 19.1819 87.5 21.4583 87.5H68.6667M12.875 66.6667C18.8962 65.6917 28.4838 65.4458 38.389 67.6792M68.6667 87.5C61.3537 75.9667 49.6675 70.2167 38.389 67.6792M36.4792 29.1667C34.3333 29.1667 30.0417 30.4167 30.0417 35.4167C30.0417 40.4167 34.3333 41.6667 36.4792 41.6667C38.625 41.6667 42.9167 40.4167 42.9167 35.4167C42.9167 30.4167 38.625 29.1667 36.4792 29.1667Z" stroke="black" stroke-width="2" stroke-linecap="round" stroke-linejoin="round"/>
</svg>
