<svg width="64" height="82" viewBox="0 0 64 82" fill="none" xmlns="http://www.w3.org/2000/svg">
<path d="M41.2736 30.7435C41.6134 30.3081 41.5359 29.6797 41.1006 29.3399C40.6652 29.0001 40.0368 29.0776 39.697 29.513L41.2736 30.7435ZM22.7264 51.2565C22.3866 51.6919 22.4641 52.3203 22.8994 52.6601C23.3348 52.9999 23.9632 52.9224 24.303 52.487L22.7264 51.2565ZM39.697 52.487C40.0368 52.9224 40.6652 52.9999 41.1006 52.6601C41.5359 52.3203 41.6134 51.6919 41.2736 51.2565L39.697 52.487ZM24.303 29.513C23.9632 29.0776 23.3348 29.0001 22.8994 29.3399C22.4641 29.6797 22.3866 30.3081 22.7264 30.7435L24.303 29.513ZM55 41C55 57.6754 44.486 70.75 32 70.75V72.75C46.0237 72.75 57 58.2901 57 41H55ZM32 70.75C19.514 70.75 9 57.6754 9 41H7C7 58.2901 17.9763 72.75 32 72.75V70.75ZM9 41C9 24.3246 19.514 11.25 32 11.25V9.25C17.9763 9.25 7 23.7099 7 41H9ZM32 11.25C44.486 11.25 55 24.3246 55 41H57C57 23.7099 46.0237 9.25 32 9.25V11.25ZM39.697 29.513L31.2117 40.3847L32.7883 41.6153L41.2736 30.7435L39.697 29.513ZM31.2117 40.3847L22.7264 51.2565L24.303 52.487L32.7883 41.6153L31.2117 40.3847ZM41.2736 51.2565L32.7883 40.3847L31.2117 41.6153L39.697 52.487L41.2736 51.2565ZM32.7883 40.3847L24.303 29.513L22.7264 30.7435L31.2117 41.6153L32.7883 40.3847Z" fill="black"/>
</svg>
